<svg xmlns="http://www.w3.org/2000/svg" width="250" height="98" viewBox="0 0 250 98"><g fill="#F00"><path d="M55.303 90.747c1.46.81 3.232 1.34 4.996.853.68-.32 1.425-1.097 1.696-1.87.274-1.06-.305-1.903-1.122-2.36-1.73-.773-4.143-.952-4.893-3.14.034-.844.137-1.655.544-2.36 1.6-1.196 3.806-1.264 5.643-.59.51.38.27 1.123.168 1.615-1.325-.427-2.99-1.166-4.313-.248-.575.383-.883 1.096-.51 1.69 2.07 1.623 6.66 1.552 5.88 5.674-.274 1.655-1.906 2.676-3.335 3.034-1.696.388-3.427-.07-4.825-.923-.1-.422-.2-1.016.07-1.373M68.353 80.955c2.512-.316 4.655.25 7.03.173.174.25.345.778.174 1.165-1.157.387-2.722-.492-3.263.775l-.17 9.902c-.378.14-1.055.14-1.158-.354V82.543l-.24-.25h-2.922c-.27-.426-.337-1.654.55-1.338M80.754 81.206c2.375-.25 4.382.136 6.762 0 .27.276.168.735.27 1.087l-.27.175-5.3.075c-.48.948-.48 2.538.168 3.38 1.63-.177 3.467-.213 5.132-.07.304.247.135.74.168 1.093l-.24.175c-1.904.357-3.6-.35-5.368.25-.405 1.303.07 2.572-.103 4.052.646.63 1.77.21 2.448.417l.408-.14 2.687.072c.44.277.233.883.168 1.272-2.277.1-4.618.138-6.998 0 .272-4.16-.204-7.58.07-11.838M103.348 92.443c-1.497-3.842-2.853-7.752-4.553-11.488-.443-.072-1.16-.283-1.494.173-1.428 3.915-2.852 7.856-4.212 11.845.206.46.613.103 1.054.244 1.054-1.66 1.12-3.77 2.445-5.252l3.5.07c1.018 1.55 1.26 3.42 2.103 5.01l.748.064c.38.035.444-.316.41-.667m-4.317-5.92c-.68-.07-1.355.104-2.037-.252.308-1.02.612-2.216 1.293-2.952.373.98.95 1.863 1.054 2.953l-.31.253M109.53 81.277c.34.1 1.123-.566 1.158.275.133 1.477-.305 3.033.068 4.3h.407c1.663-1.622 3.06-2.993 4.654-4.575l1.564.1v.318c-1.7 1.724-3.6 3.136-4.995 5.004 1.326 2.284 3.567 4.226 4.757 6.517-.442.244-1.154.244-1.56 0-1.36-2.047-3.06-3.947-4.555-5.922-.442-.14-.404.36-.513.605l-.168 5.21c-.34.105-.95.212-1.12-.14-.1-3.986.17-7.72.305-11.693M123.325 81.206c.208-.323.615-.108.883-.18.823 1.34-.2 3.31.58 4.756 1.8.25 3.535-.14 5.403 0l.413-.53c.1-1.445.03-2.462.06-3.874.31-.172.713-.386 1.058-.172.374 4.187 0 7.604 0 11.767-.305.032-.61.21-.987.14l-.23-.317c.103-2.008.202-3.453-.076-5.5-1.768-.277-3.7-.175-5.635-.105l-.304.425-.17 5.36c-.24.277-.647.103-.99.138l-.168-.315c-.07-4.34.1-7.934.165-11.592M146.163 82.046c-1.907-1.55-4.248-1.653-6.458-.668-1.63.847-2.547 2.608-2.926 4.3-.435 2.643.444 5.248 2.69 6.766 1.795.738 4.275 1.195 5.943-.07 1.49-1.13 2.445-2.715 2.72-4.583.2-2.185-.477-4.267-1.97-5.744m.403 6.41c-.578 1.52-1.902 3.036-3.6 3.242-1.46 0-2.924-.206-3.808-1.44-.984-1.307-1.357-3.175-.815-4.832.31-1.056.954-2.072 1.938-2.705 1.492-.92 3.298-.46 4.727.24 1.39 1.48 2.138 3.423 1.56 5.497M153.842 81.027c.236-.39.542.07.883-.072l.238.322.104 8.205c.164.774.813 1.552 1.525 1.865.512.488 1.117-.07 1.623.422 1.196-.316 2.458-1.023 2.8-2.357l.064-8.386c.238-.286.71-.178.98-.072l.238.423-.064 8.353c-.104 1.306-1.223 2.57-2.38 3.064-1.802.772-3.878.142-5.302-1.096-.545-.7-.753-1.513-.887-2.392l.177-8.28M168.107 90.675c1.602.78 3.568 1.413 5.308.43.91-.563 1.32-1.622 1.117-2.647-1.498-2.57-7.138-1.4-5.607-5.99.65-1.188 1.935-1.65 3.158-1.756.987.172 2.177.104 2.858.843l-.068 1.168c-1.192-.32-2.89-.888-4.18-.18-.783.352-.507 1.305-.24 1.864 1.87 1.415 5.608 1.34 5.405 4.76.033 1.438-.85 2.853-2.14 3.45-1.663.92-4.046.527-5.61-.352 0-.53-.373-1.095 0-1.59M182.107 80.955c2.52-.244 4.076.104 6.625 0 .138.354.24.807.07 1.163l-5.472.35c-.24.886-.24 2.183 0 2.958 1.694.32 3.5.11 5.4.182.272.316.17.882.07 1.27l-5.538.18c-.406 1.3.066 2.848-.07 4.05l.54.42 5.068.174c.066.35.274.987-.173 1.272h-6.42l-.234-.178v-11.59l.134-.25M194.023 84.434c0-2.2 1.735-3.994 3.873-3.994 2.136 0 3.856 1.795 3.856 3.994 0 2.22-1.722 4.016-3.856 4.016-2.136-.002-3.873-1.798-3.873-4.016m7.123 0c0-1.942-1.373-3.463-3.25-3.463-1.88 0-3.256 1.522-3.256 3.464 0 1.967 1.375 3.49 3.256 3.49 1.877 0 3.25-1.526 3.25-3.49zm-1.316 2.238h-.637l-1.232-2.063h-.966v2.062h-.528v-4.47h1.886c1.14 0 1.53.442 1.53 1.184 0 .876-.597 1.206-1.358 1.224l1.306 2.062zm-2.03-2.49c.612 0 1.51.103 1.51-.808 0-.694-.553-.778-1.08-.778h-1.234v1.586h.804M38.67 49.84l.015-.437c.003-.08.003-.16.003-.236 0-2.355-1.022-4.433-2.83-5.718l-.362-.254-.158-.41c-.38-.967-1.244-1.648-2.247-2.44 0 0-.232-.187-.444-.355-.97-.227-1.717-.773-2.326-1.25-.714-.56-1.076-.8-1.486-.765l-.55.054-.447-.326c-1.545-1.12-4.005-1.1-6.172-1.095l-.95.004-.232-.077c-.285-.097-.53-.008-1.17.27-.566.25-1.307.573-2.206.578-.945.613-1.953.972-2.867 1.225-.834.228-1.535.45-2.06.842-.59 1.315-1.66 2.005-2.5 2.502-.84.492-1.194.75-1.322 1.21l-.166.624-.573.302c-.183.092-.3.373-.507.95-.197.557-.535 1.243-1.08 1.867-.11.38-.896 3.097-.987 3.424 0 .37-.02 1.83-.02 1.83C5.01 52.744 5 53.333 5 53.925c0 2.44.23 4.795 1.648 6.44l.193.22.093.273c.532 1.587 2.114 5.374 5.292 6.24l.435.122.296.338c.942 1.098 2.542 1.45 4.088 1.787 0 0 .752.17.857.202l.727.038c.524-.014 1.2.04 1.902.35 2.578.314 6.206.49 8.475-1.36l.41-.33h.524c.317 0 .654-.19 1.184-.48l1.315-.636-.237.104c1.223-.682 2.073-1.805 2.972-2.992.814-1.075 1.657-2.188 2.89-3.145.305-.212.367-.69.427-1.647.065-.974.193-2.22 1.024-3.24l.046-1.142c.033-.6.06-1.17.06-1.706 0-1.167-.146-2.193-.726-3.156l-.225-.367m64.875-9.882c0-.938-.124-1.833-.254-2.625-.95.333-1.852.263-2.583.18-.963-.108-1.162-.083-1.398.19l-1.112 1.26s-.87-1-1.016-1.166l-.338.008c-.46.035-1.205.014-1.934-.356-.325.004-.655.013-.655.013-.467-.028-.684-.033-.81.062l-.33.24-.41.033c-1.573.133-3.377-.142-5.018-.47-1.26.646-2.872.57-4.156.1-.793-.133-1.453-.07-1.938.136-.028 1.016-.1 3.195-.1 3.217.043.292.094.582.094.878 0 .552-.063 1.088-.12 1.597-.063.56-.1.97-.1 1.28 0 .396.083.594.203.747.22-.036.428-.042.623-.014.884-.25 1.67-.188 2.42-.1l1.112.108.28.166c1.357.794 1.548 2.103 1.548 3.132 0 .23-.008.45-.014.644-.013.174-.02.378-.02.563 0 .264.02.495.084.593l.378.598-.223.67c-.208.61-.282 1.24-.282 1.886 0 .802.114 1.625.228 2.48.12.896.248 1.846.248 2.83 0 .936-.16 1.896-.508 2.864.157.706.236 1.39.236 2.06 0 .876-.093 1.72-.193 2.55-.09.78-.175 1.516-.175 2.225 0 .548.082 1.09.222 1.63.36.06.707.083 1.098.072.06-.018.24-.088.24-.088.433-.17 1.354-.503 2.275-.1.48.035 1.212.1 1.212.1.806.13 1.122.152 1.404-.036 1.472-1.063 2.826-.438 3.55-.1l.196.07c.02-.11.082-.21.082-.333 0-.413-.108-.85-.25-1.205l-.117-.28.068-1.805c.04-.968.083-1.955.083-2.93 0-1.24-.065-2.46-.285-3.605l-.1-.54.27-.47c.148-.267.206-.583.206-.947 0-.417-.075-.896-.154-1.41-.09-.58-.184-1.18-.184-1.8 0-.182.01-.37.023-.555l.022-.152.04-.142c.134-.41.174-.814.174-1.234 0-.45-.047-.923-.107-1.43-.063-.544-.128-1.116-.128-1.71 0-.824.125-1.686.55-2.58 1.164-2.66 3.444-2.184 4.538-1.953.655.137.924.128 1.125.08-.018-.302-.097-.635-.203-1.014l-.26-.934.186-.456c.338-.838.455-1.783.455-2.718zm-29.92 25.59l-.185-.265-.01-2.193c.005-.295.01-.595.01-.896 0-1.297-.08-2.588-.583-3.63l-.378-.79.51-.705c.445-.62.587-1.35.587-2.167 0-.713-.104-1.493-.22-2.32l-.247-2.114s.363-1.022.46-1.305c.015-.217.027-.44.027-.665 0-1.01-.12-2.01-.242-2.99-.12-1-.246-2.022-.246-3.062 0-.832.1-1.674.324-2.53-.038-.5-.097-1.504-.097-1.51 0-.716-.057-1.178-.193-1.524-.324.003-.652.04-.785.19l-.767.9-1.042-.56c-.58-.314-1.282-.34-2.083-.38 0 0-.416-.03-.83-.07-.175.147-.488.4-.488.4l-.155.07c-1.212.604-2.226.05-2.752-.248-.416.093-.798.085-1.082.07-.074.442-.17.88-.17 1.322 0 .427.02.863.05 1.322.024.468.053.967.053 1.48 0 .636-.083 1.315-.214 2.01.16 1.155.22 2.277.22 3.353 0 .848-.03 1.676-.06 2.494-.03.8-.056 1.59-.056 2.374 0 1.33.08 2.647.373 4.022l.02.425-.168 1.633c-.07 1.295-.173 2.895-1.444 4.043.03-.033.063-.04.092-.072l-.182.188c.036-.042.054-.077.09-.114-.84.924-1.98 1.004-3.41.207l-.226-.12.14.056c-1.943-.692-2.267-2.68-2.443-3.748l-.092-.562.075-.3c0-.032.005-.063.005-.102 0-.194-.1-.483-.208-.784-.142-.41-.335-.967-.335-1.6 0-.37.12-.766.307-1.17.12-.754.19-1.52.19-2.287 0-.823-.066-1.65-.203-2.47l-.078-.49.227-.434c.125-.237.154-.664.154-1.117 0-.253-.007-.52-.02-.766v-.965c-.42-.848-.623-1.71-.623-2.542 0-.8.128-1.568.236-2.26.12-.712.214-1.307.214-1.83 0-.395-.086-.745-.21-1.077-.528 0-1.025.096-1.524.315l-.62.263-.6-.29c-.948-.453-2.785-1.084-4.387-.177l-.223.123-.253.05c-.763.13-1.5-.004-2.14-.213-.082.266-.115.595-.115.96 0 .404.034.836.06 1.213 0 0 .025.41.036.677.294.646.44 1.295.44 1.904 0 .72-.135 1.4-.263 2.01-.122.604-.212 1.08-.212 1.507 0 .3.044.57.155.837l.117.262-.077 2.73c-.035 1.005-.07 2.02-.07 3.02 0 1.553.086 3.064.4 4.42l.097.407-.142.4c-.108.312-.152.64-.152.978 0 .713.195 1.48.405 2.324 0 0 .206 1.016.336 1.674.992.906 1.426 2.076 1.75 3.053.437 1.317.658 1.802 1.418 2.046 1.037.158 1.885.68 2.567 1.117.88.566 1.287.79 1.783.673l.55-.134.497.275c.66.358 1.61.283 2.616.197 0 0 .607-.042.885-.057.395-.103.827-.334 1.294-.592 1.048-.578 2.346-1.293 4.04-.888l.632.153.318.57c.28.524.917.607 2.2.664l.796.063c.123-.02.27-.05.27-.05.502-.11 1.133-.25 1.72-.152l.678.07c1.645.174 3.445.305 4.686-.353-.046-.962-.584-1.877-1.216-2.904l-.593-.97zm29.806-28.245l.19-.07c-.08.04-.156.043-.235.075l.046-.005zm74.91 31.436c-.972-1.608-1.482-3.28-1.928-4.9-.396-1.468-.78-2.847-1.51-4.113l-.174-.29-.026-.34c-.093-1.262-.595-2.463-1.526-3.67l.16.17c-1.146-1.062-1.098-2.437-1.066-3.353.02-.596.02-.965-.127-1.137-1.75-1.472-1.934-3.47-2.072-5.095-.085-1.042-.17-2.028-.59-2.683-.722-1.012-.904-2.124-1.065-3.106-.11-.652-.21-1.27-.462-1.703l-.05-.086-.04-.103c-.25-.616-.288-.713-1.9-.43-.884.154-1.963.257-3.053-.01-.18.015-.354.015-.567-.034-.037.008-.27.077-.27.077-.58.177-1.668.46-2.684-.028-.474.022-2.06.087-2.06.087-1.69.124-3.583.228-5.334-.164-.07.036-.158.077-.158.077-1.07.56-1.975.498-2.708-.08-.23-.062-.4-.103-.46-.12-.148.34-.255.72-.255 1.14 0 .214.02.437.07.656.276.645.413 1.284.413 1.905 0 .755-.146 1.475-.274 2.116-.128.647-.21 1.116-.21 1.49 0 .36.104.623.28.875.135.024.302.032.495.038.694.01 1.862.035 2.77 1.125l.35.54-.032 1.718v.49c0 1.354-.17 2.98-1.313 4.247-.078 1.264-.6 2.297-1.046 3.143-.424.79-.69 1.328-.69 1.864 0 .048.007.084.007.132l.056.687-.495.482c-.936.912-1.268 2.38-1.61 3.935l-.257 1.146s-.298.028-.583.057c-.11 1.354-.724 2.422-1.29 3.36-.4.66-.698 1.25-.82 1.86.202-.006.51-.057.745-.102.566-.097 1.248-.172 1.965-.094.846-.328 1.73-.238 2.416-.14 0 0 .287.026.51.053 1.186-.524 2.297-.264 3.06-.053.673.188.84.175.972.1.1-.198.185-.366.19-.478l.145-.65.426-.396.182-.43c.184-.497.43-1.178 1.08-1.733l.055-.044.058-.045c2.265-1.58 5.078-1.292 7.347-1.054 0 0 .29.02.41.035 2.715-.108 3.937 2.395 4.667 3.908l.21.423c.638.24 1.603.067 2.295-.33l.79-.46.76.506c.718.473 1.622.342 3.022.07l2.02-.37.315.72c.006 0 .162.023.24.037.18-.094.32-.188.4-.273-.013-.313-.073-.648-.15-1.032-.008 0-.017-.065-.028-.14zm66.365-3.344c0-.405-.072-.867-.176-1.43-.105-.595-.224-1.25-.224-1.957 0-.34.05-.7.123-1.065-.106-.074-1.44-1.086-1.44-1.086-1.547-1.18-3.012-2.29-4.627-2.718l-.867-.265-.367-1.558c-.18-.692-.37-1.5-.37-2.354 0-.522.086-1.067.286-1.612-.012.045-.04.076-.048.123l.064-.224c-.015.036-.006.063-.018.1.336-1.278 1.376-1.99 2.157-2.503 0 0 .082-.062.168-.117.8-1.633 2.148-2.56 3.38-3.355.913-.587 1.67-1.133 2.097-1.858-.12-.382-.527-.81-.994-1.188l-.434-.356-.095-.545c-.25-1.56-2.02-2.64-3.57-3.59 0 0-.165-.104-.315-.19-.142.016-.312.043-.312.043-1.302.166-1.438.28-1.513.578l-.188.745-.712.278c-1.21.473-2.496 1.694-3.44 3.268l-.323.55-.622.138c-.167.035-.43.396-.668.715-.49.663-1.16 1.568-2.4 1.847l-.752.16-.562-.52c-.573-.525-.86-1.234-.887-2.082-.397-.666-.613-1.334-.613-1.97 0-.744.182-1.438.338-2.03.14-.526.263-1.007.263-1.435 0-.065-.018-.125-.02-.185-.27-.343-.74-.375-2.445.057-.775.194-1.573.396-2.36.396h-.956s-.134-.298-.25-.55c-.017-.01-.062-.02-.095-.022-1.204.47-2.34.296-3.28.12-.327-.063-.622-.093-.92-.125-.024.166-.054.325-.054.325s-.02.185-.042.335c.132.562.246 1.122.246 1.66 0 .787-.102 1.552-.192 2.27-.09.674-.175 1.307-.175 1.892 0 .562.08 1.083.29 1.567l.225.506-.164.532c-.292.932-.438 1.915-.438 2.813 0 .645.072 1.24.23 1.75l.068.21-.09 3.69-.083 7.127.078.896c.05.4.107.84.107 1.31 0 .457-.063.933-.23 1.413-.128.664-.18 1.337-.18 2.007 0 .917.1 1.8.238 2.65l.25-.08c.537-.19 1.2-.428 2.002-.348l.378.05.313.223c.15.104.593.182.768.123l.98-.304s.178.196.354.396c.07 0 .12 0 .222-.006 1.463-1.165 2.98-.57 3.746-.217.793.357.85.322 1.013.208 0 0 .237-.136.27-.15-.03-.165-.104-.4-.155-.585-.164-.496-.364-1.136-.364-1.85 0-.498.095-1.03.38-1.576l.102-.176.143-.15c.104-.104.126-.42.126-.76 0-.16 0-.324-.006-.482-.008-.193-.015-.39-.015-.595 0-.602.056-1.24.328-1.875l.562-1.307 1.324.517c1.188.466 1.895 1.448 2.468 2.247l.402.545-.184-.195 1.666 1.746c.645.746 1.307 1.46 1.95 1.916 1.642.062 2.626 1.144 3.286 1.898.52.593.834.93 1.246.986l.435.147.242.14c.117.056.597 0 .847-.03.627-.08 1.4-.173 2.18.147l.094.035s.098.053.105.063c.043-.68.188-1.284.333-1.808.145-.522.238-.896.238-1.233 0-.204-.037-.385-.12-.582l-.273-.626.3-.61c.152-.33.218-.652.218-1.026zm-107.083-9.79c-.24-.845-.354-1.136-.787-1.34l-1.22-.58.475-1.263c.314-.843.852-1.554 1.318-2.174.684-.912 1.025-1.422 1.025-1.965 0-.114-.015-.233-.054-.36l-.19-.725.472-.58c.33-.405.495-.98.495-1.74 0-.507-.1-1.125-.245-1.8-.26-.42-.78-1.247-.78-1.247-1.028-1.76-1.588-2.537-2.673-2.57l-.62-.023-.418-.458c-1.07-1.167-3.197-1.065-4.904-.985l-.133.002c-1.863.276-3.904.27-5.92.007-1.69.42-3.194.3-4.647.152-1.027-.1-2.01-.186-3.083-.093-1.34.885-2.713.416-3.5.103-.25-.103-.624-.253-.71-.258 0 0-.103.102-.14.142-.037.035-.062.07-.062.16 0 .11.044.313.176.734.12.402.29.965.29 1.592 0 .5-.19 1.045-.53 1.58-.085.276-.128.558-.128.865 0 .832.276 1.757.55 2.665l.168.562-.174.466c-.404 1.08-.545 2.255-.545 3.363 0 1.04.125 2.022.275 2.83l.063.33-.087.33c-.256.907-.35 1.917-.35 2.944 0 1.7.26 3.438.506 4.793l.108.627-.378.51c-.27.368-.39.978-.39 1.646 0 .734.142 1.54.378 2.178l.27.742-.464.64c-.35.473-.506 1.302-.506 2.097 0 .545.096 1.018.236 1.412 1.853.058 3.53.044 5.2-.59l.514-.2.513.187c1.517.552 3.396.552 4.914 0l.703-.25.62.412c.157.103.664.148 1.003.177 0 0 .452.063.774.105 1.595-.316 3.136-.25 4.615-.143.965.07 1.88.127 2.738.063.346-.11 3.945-1.28 3.945-1.28.773-.306 1.102-1.072 1.568-2.308.262-.705.535-1.438.973-2.115l.286-.437s.19-.06.336-.11c.03-.09.12-.326.15-.424-.022-.265-.05-.522-.05-.778 0-.63.058-1.237.11-1.797.05-.562.09-1.04.09-1.467 0-.635-.11-1.142-.395-1.586-1.16-.79-1.542-1.95-1.775-2.775zm70.203 7.912c0-.517.067-1.006.123-1.432.065-.46.1-.78.1-1.003 0-.18-.022-.295-.056-.388-.184-.02-.4-.047-.4-.047-.24-.04-.607-.1-.72-.07l.017-.008-.448.185-2.686.18c-1.738.165-3.533.335-5.472-.062l-.218-.044-3.524-1.875-.21-.345c-.716-1.19-1.322-2.842-1.322-4.51 0-.94.203-1.875.676-2.735-.012.02-.033.04-.04.07l.067-.148c-.018.022-.02.05-.027.078.674-1.505 2.047-2.262 3.158-2.867l.963-.56c1.492-1.538 3.357-1.398 4.742-1.26.8.08 1.562.15 2.073-.03 1.05-.464 2.04-.283 2.766-.15.313.056.478.076.62.08.006-.113.053-.213.053-.335 0-.386-.06-.813-.117-1.272-.063-.5-.125-1.044-.125-1.6 0-.44.067-.893.186-1.354-.11-.486-.18-.98-.18-1.478 0-.338.02-.677.034-1.013.018-.335.02-.635.02-.908 0-.606-.093-1.014-.29-1.32-.037-.006-.137-.016-.137-.016-.61-.073-.915-.095-1.05.024l-.482.427-.64-.062c-.767-.08-1.56.005-2.394.095-1.134.125-2.42.2-3.76-.086-.35.043-2.712.325-2.712.325-3.022.284-5.878.558-7.642 2.744l-.27.333-.408.14c-1.646.56-2.79 2.284-3.904 3.956l-.29.442-.192.15c-2.177 1.652-2.285 4.172-2.413 7.092 0 0-.178 2.26-.23 2.886.614 1.4 1.012 2.944 1.134 4.457.524 1.98 1.74 3.866 3.26 5.04l.406.307.122.49c.195.768.984 1.25 2.264 1.94.703.39 1.43.78 2.068 1.315l.16.135.117.178c.24.354.79.412 1.907.45.685.024 1.423.113 2.16.316 1.21-.483 2.388-.228 3.283 0 .55.146 1.063.278 1.418.2l.233-.05.23.023c.382.042.886-.08 1.422-.22 1.004-.247 2.33-.51 3.647.184.435-.032.957-.08.957-.08.78-.04 1.468-.118 1.918-.356.12-.418.17-.9.17-1.446 0-.194 0-.396-.004-.595-.006-.215-.008-.44-.008-.662 0-.7.08-1.444.258-2.192-.232-.556-.363-1.12-.363-1.66zM17.46 49.582c1.106-1.37 2.17-2.87 3.92-3.31 2.043.263 3.324 1.807 4.597 3.31.512 2.954.427 6.046-.723 8.652-.81 1.063-1.958 2.298-3.365 2.252-2.046.53-3.15-1.146-4.087-2.563-.255-2.115-.857-4.145-.342-6.225v-2.116zm105.628 6.313c1.214.557 2.426-.482 3.438.483 1.28 1.474.94 3.71.334 5.386-.334.77-1.073 1.74-1.95 1.815-.81-.28-2.092-.28-2.29-1.466-.81-2.093.06-4.262.468-6.22zm.456-12.278c1.57-.223 3.354-.15 4.065 1.63.07 2.137-1.073 4.29-3.064 5.17-.712-.22-1.572-.366-1.86-1.254-.277-1.844-1.277-4.36.858-5.546zm36.224 7.682c.842.08 2.53-.32 2.907.955.464 1.35.692 2.944.617 4.535-1.3.792-2.452 2.47-3.914.953-1.61-.638-.765-2.308-.69-3.58 1.384-.475.848-1.908 1.08-2.864M6.084 26.285c0-.125.453-.43 1.008-.677.556-.25 1.412-.655 1.91-.904.493-.25 1.29-.61 1.757-.805.47-.19 1.218-.51 1.656-.705.445-.193 1.438-.598 2.212-.905.77-.305 1.974-.758 2.665-1.005.69-.245 1.732-.61 2.31-.8.58-.197 1.482-.468 2.01-.607.523-.14 1.7-.475 2.612-.754.912-.272 2.178-.615 2.816-.753.635-.134 1.697-.313 2.36-.398.665-.086 1.727-.197 2.358-.253.635-.055 1.41-.147 1.71-.198.303-.057.756-.128 1.006-.153.248-.027 1.364-.207 5.51-.403 4.145-.19 7.896-.396 8.34-.448.44-.06 1.208-.154 1.708-.205.496-.054 1.81-.15 2.915-.203 1.103-.058 2.458-.102 3.01-.102.556 0 1.437.022 1.96.054.525.022 1.342.093 1.812.15.47.05 1.19.17 1.604.25.416.08.8.334.854.55.057.226.17.54.254.707.082.162.216.417.302.547.08.145.24.367.35.506.108.14.428.413.703.605.277.193.798.53 1.154.753.365.22.792.334.955.25.17-.084.464-.17.655-.198.193-.033.535-.074.758-.096.22-.035.58-.13.805-.208.217-.08.917-.378 1.556-.654.636-.27 1.447-.635 1.806-.8.36-.167.994-.368 1.407-.453.416-.085 1.047.325 1.405.903.363.584.79 1.125.958 1.213.164.077.458.193.655.245.19.06.732.216 1.202.354.47.133 1.238.343 1.71.452.47.108 1.034.268 1.256.348.22.084.535.222.704.307.165.082.46.036.652-.105.193-.136.532-.34.753-.45.22-.107.607-.244.855-.298.247-.057.61-.057.802 0 .195.054.353-.038.353-.203 0-.167.046-.46.1-.648.057-.2.145-.516.202-.708.053-.192.19-.485.298-.656.11-.164.27-.39.353-.5.087-.108.267-.267.403-.353.14-.086.502-.262.804-.4.304-.14.848-.344 1.207-.455.36-.11.994-.288 1.407-.4.414-.113 1.414-.36 2.21-.55.806-.198 1.73-.468 2.064-.604.33-.14.828-.365 1.104-.504.277-.14.958-.973 1.507-1.858.552-.885 1.275-1.54 1.608-1.453.33.077.85.21 1.155.296.306.084.983.33 1.507.557.524.218 1.337.606 1.81.854.47.246 1.238.607 1.706.8.474.197 1.155.418 1.513.505.36.084.9.196 1.2.253.303.057.803.146 1.11.197.304.056.776.188 1.054.297.274.117.73.07 1.002-.096.278-.168.705-.413.953-.552.247-.135.635-.385.855-.55.22-.168.535-.414.706-.55.164-.145.438-.416.6-.606.17-.196.417-.535.556-.755.136-.225.34-.606.45-.856.11-.248.267-.698.353-1.005.082-.3.397-.618.706-.7.3-.082.818-.196 1.15-.25.332-.057 1.192-.168 1.906-.254.726-.08 1.942-.196 2.716-.253.774-.054 2.083-.1 2.915-.1.83 0 2.208.026 3.063.05.858.033 2.213.12 3.014.207.808.08 2.068.193 2.815.247.74.053 1.922.19 2.61.3.694.115 2.118.474 3.164.802 1.05.335 2.342 1.198 2.866 1.91.524.72 2.263.153 3.867-1.255 1.603-1.41 4.454-2.563 6.333-2.563 1.874 0 5.11-.99 7.186-2.21 2.07-1.216 5.164-1.982 6.883-1.707 1.71.276 4.81.663 6.878.854 2.076.197 4.695.74 5.826 1.208 1.14.47 3.373 1.85 4.978 3.066 1.604 1.215 4.16 1.054 5.678-.356 1.52-1.41 4.23-2.178 6.03-1.708 1.8.473 4.418 2.007 5.83 3.417 1.408 1.408 3.056 2.655 3.67 2.764.605.115 1.26.204 1.457.204.19 0 .55.045.8.102.25.054.59.143.75.2.168.054.323.1.353.1s.345.064.705.15c.355.085.95.172 1.308.202.354.03.9.163 1.207.302.306.135.753.4 1.006.58.245.18.655.517.903.753.247.23.663.546.926.704.267.15 1.235.577 2.165.95.927.374 2.292.982 3.034 1.356.75.373 1.563.74 1.813.805.25.07.678.146.953.18.277.026.72-.006.98-.077.265-.064.603-.135.753-.153.15-.008.38.01.5.05.13.042.72.314 1.308.602.602.29 1.583.71 2.188.933.607.217 1.695.492 2.412.6.72.112 1.33.207 1.36.207.024 0 .362.087.753.2.385.104.792.292.906.4.11.11.72.222 1.35.25.636.03 1.68.164 2.313.306.634.133.4.427.994.652.6.22 1.386.307 1.764.2.368-.108.97-.225 1.327-.25.363-.026.98-.006 1.385.05.402.055 1.01.212 1.36.348.34.142.85.456 1.128.704.275.248.55.586.617.755.062.16.13.343.142.403.02.057-.016.2-.076.306l-.08.1-.09.096c-.113.103-.553.19-.973.193h-.386c-.384.005-.772.005-1.154 0-.38 0-.77-.185-1.137-.193l-.367-.008c-.393.085-.848.142-1.006.128l-.166-.008c-.164-.005-.34-.008-.51-.005-.17 0-.33-.146-.468-.13l-.128.016c-1.037.114-1.47.213-2.466.215l-1.806-.002c-1.804 0-3.627-.01-5.453-.014-1.828-.008-3.668-.017-5.508-.028-1.838-.005-3.677.162-5.51.147-1.59-.013-3.238-.198-4.906-.195-1.67 0-3.364.008-5.044.014-1.688.005-3.363.005-4.998-.006l-1.642-.003c-1.707-.03-3.703-.078-4.43-.11-.73-.032-1.92-.022-2.644.022-.73.046-1.92.083-2.642.092-.73.01-1.913.02-2.644.028-.73.007-1.943 0-2.705-.017l-.685-.006c-.673-.006-1.346-.01-2.023-.006-.68 0-1.356.01-2.047.014-.688.006-1.39-.128-2.106-.128-1.756.032-3.48.182-5.19.182-1.71 0-3.41-.014-5.105-.028-1.693-.012-3.385-.035-5.086-.048-1.696-.01-3.41-.407-5.128-.405-1.467.023-2.938.42-4.42.425-1.477.008-2.953.008-4.435.002-1.478-.002-2.946-.008-4.415-.008-1.466-.006-2.928.005-4.382.013l-.905-.02c-.576-.42-1.77-.44-2.658-.046l-2.41-.025c-.995-.01-1.982-.02-2.96-.026h-.972c-1.046 0-1.96.008-2.04.015l-.398.02c-.152.012-.333.02-.408.026-.073.003-.85.003-1.723.008-.87 0-2.297.03-3.174.07-.87.035-2.298.035-3.17 0-.873-.036-2.3-.06-3.176-.06-.868 0-1.538-.11-1.486-.247.055-.133.078-.313.05-.395-.022-.08-.2.022-.385.23-.185.21-.375.395-.427.418-.054.025-.617.01-1.247-.018l-.602.013c-.606.014-1.225.017-1.836.028-.612.008-1.22-.077-1.81-.074l-.586.01c-.607.05-2.338-.065-3.852-.277l-1.4-.022c-1.405-.02-2.836.272-4.257.26-1.42-.008-2.844-.014-4.27-.014h-1.424c-1.56.006-2.85.014-2.87.01-.016 0-.05-.004-.07-.01l-.068-.002c-.02 0-.05-.006-.072-.006-.017-.002-.14-.13-.267-.285l-.245.008c-.235.006-.725.313-.968.31-.248 0-.495-.01-.75-.015-.248-.003-.505-.003-.766.005-1.54.04-3.12-.082-4.712-.077-1.59.006-3.188.13-4.77.123-1.576-.01-1.786.62-3.29.62-1.51 0-2.96.015-4.33.046-1.022.012-2.044.02-3.063.03-1.02.005-2.04.005-3.068 0-1.024-.01-3.4-.658-4.423-.67l-1.03-.014c-1.133-.028-2.072-.044-2.086-.047-.014-.006-.035-.01-.05-.014-.012-.003-.035-.01-.047-.01-.014 0-.04-.007-.053-.007-.013-.003-.29.084-.62.19l-.29.005c-1.236.018-1.538-.17-.894-.174H52.727c-1.934.047-3.85-.106-5.76-.084-1.92.022-2.903.698-4.83.71-1.922.002-2.296-.482-4.248-.482l-1.957.003c-2.192-.092-4.023-.177-4.07-.185-.042-.012-.116-.023-.162-.03-.038-.007-.113-.018-.157-.03l-.16-.025c-.043-.008-.098-.014-.12-.008-.02.004-.077.007-.123.013-.043.003-.097.013-.12.013-.02.008-.182.025-.364.05l-.19.013c-.19.013-.388.02-.593.027-.207.002-.413-.125-.612-.13h-.2c-.2.064-1.505.204-2.902.306H24.91s-2.482-.008-3.707-.014c-1.223-.004-2.442.13-3.66.132-1.22 0-2.438-.122-3.66-.105-.648-.01-1.34.002-2.044.01-.703.016-1.42-.158-2.107-.155-.692 0-1.36.176-1.973.14l-.613-.026c-.566-.08-1.033-.2-1.042-.27-.012-.078-.02-.23-.02-.35v-.44"/></g></svg>
